<svg xmlns="http://www.w3.org/2000/svg" xmlns:xlink="http://www.w3.org/1999/xlink" viewBox="0 0 640 640" width="32" height="32"><defs><path d="M507.26 301.21l.22.02.21.03.21.04.21.04.2.06.2.06.2.07.19.08.19.08.19.09.18.1.17.11.18.11.16.12.17.12.16.13.15.14.15.14.14.15.13.15.13.16.13.16.12.17.11.17.1.18.1.18.09.19.09.19.08.19.07.2.06.2.05.2.05.21.04.21.03.21.02.21.01.22.01.22v106.67h106.88l.22.02.22.02.21.03.21.04.21.04.2.06.2.06.2.07.19.08.19.08.19.09.18.1.17.11.18.11.16.12.17.12.16.13.15.14.15.14.14.15.13.15.13.16.13.16.12.17.11.17.1.18.1.18.09.19.09.19.08.19.07.2.06.2.05.2.05.21.04.21.03.21.02.21.01.22.01.22v85.33l-.01.22-.01.22-.02.22-.03.21-.04.21-.05.21-.05.2-.06.2-.07.2-.08.19-.09.19-.09.18-.1.19-.1.17-.11.18-.12.16-.13.17-.13.15-.13.16-.14.15-.15.14-.15.13-.16.13-.17.13-.16.12-.18.11-.17.1-.18.1-.19.09-.19.09-.19.08-.2.07-.2.06-.2.05-.21.05-.21.04-.21.03-.22.02-.22.01-.21.01H512.16v106.66l-.01.22-.01.22-.02.22-.03.21-.04.21-.05.21-.05.2-.06.2-.07.2-.08.19-.09.19-.09.18-.1.19-.1.17-.11.18-.12.16-.13.17-.13.15-.13.16-.14.15-.15.14-.15.13-.16.13-.17.13-.16.12-.18.11-.17.1-.18.1-.19.09-.19.09-.19.08-.2.07-.2.06-.2.05-.21.05-.21.04-.21.03-.22.02-.22.01-.21.01h-85.34l-.22-.01-.22-.01-.21-.02-.21-.03-.21-.04-.21-.05-.2-.05-.2-.06-.2-.07-.19-.08-.19-.09-.19-.09-.18-.1-.18-.1-.17-.11-.17-.12-.16-.13-.16-.13-.15-.13-.15-.14-.14-.15-.14-.16-.13-.15-.12-.17-.12-.16-.11-.18-.11-.17-.1-.19-.09-.18-.08-.19-.08-.19-.07-.2-.06-.2-.06-.2-.04-.21-.04-.21-.03-.21-.02-.22-.02-.22V509.19H309.49l-.22-.01-.22-.01-.21-.02-.21-.03-.21-.04-.21-.05-.2-.05-.2-.06-.2-.07-.19-.08-.19-.09-.19-.09-.18-.1-.18-.1-.17-.11-.17-.12-.16-.13-.16-.13-.15-.13-.15-.14-.14-.15-.14-.16-.13-.15-.12-.17-.12-.16-.11-.18-.11-.17-.1-.19-.09-.18-.08-.19-.08-.19-.07-.2-.06-.2-.06-.2-.04-.21-.04-.21-.03-.21-.02-.22-.02-.22V418.3l.02-.22.02-.21.03-.21.04-.21.04-.21.06-.2.06-.2.07-.2.08-.19.08-.19.09-.19.1-.18.11-.18.11-.17.12-.17.12-.16.13-.16.14-.15.14-.15.15-.14.15-.14.16-.13.16-.12.17-.12.17-.11.18-.11.18-.1.19-.09.19-.08.19-.08.2-.07.2-.06.2-.06.21-.04.21-.04.21-.03.21-.02.22-.02h106.89V306.3l.02-.22.02-.21.03-.21.04-.21.04-.21.06-.2.06-.2.07-.2.08-.19.08-.19.09-.19.1-.18.11-.18.11-.17.12-.17.12-.16.13-.16.14-.15.14-.15.15-.14.15-.14.16-.13.16-.12.17-.12.17-.11.18-.11.18-.1.19-.09.19-.08.19-.08.2-.07.2-.06.2-.06.21-.04.21-.04.21-.03.21-.02.22-.02h85.77l.22.02z" id="e"/><path d="M0 216.22l126.26 126.26H0V216.22z" id="a"/><path d="M340.85 216.22L214.59 342.48h126.26V216.22z" id="b"/><path d="M340.85 126.26L214.59 0h126.26v126.26z" id="c"/><path d="M0 126.26L126.26 0H0v126.26z" id="d"/><clipPath id="f"><use xlink:href="#a"/></clipPath><clipPath id="g"><use xlink:href="#b"/></clipPath><clipPath id="h"><use xlink:href="#c"/></clipPath><clipPath id="i"><use xlink:href="#d"/></clipPath></defs><use xlink:href="#e" fill="#fff"/><use xlink:href="#e" fill-opacity="0" stroke="#000" stroke-width="20"/><use xlink:href="#a" fill="#fff"/><g clip-path="url(#f)"><use xlink:href="#a" fill-opacity="0" stroke="#000" stroke-width="40"/></g><use xlink:href="#b" fill="#fff"/><g clip-path="url(#g)"><use xlink:href="#b" fill-opacity="0" stroke="#000" stroke-width="40"/></g><g><use xlink:href="#c" fill="#fff"/><g clip-path="url(#h)"><use xlink:href="#c" fill-opacity="0" stroke="#000" stroke-width="40"/></g></g><g><use xlink:href="#d" fill="#fff"/><g clip-path="url(#i)"><use xlink:href="#d" fill-opacity="0" stroke="#000" stroke-width="40"/></g></g></svg>
