<svg xmlns="http://www.w3.org/2000/svg" xmlns:xlink="http://www.w3.org/1999/xlink" viewBox="0 0 640 640" width="32" height="32"><defs><path d="M10.89 11.88h320v320h-320v-320z" id="a"/><path d="M507.26 301.21l.22.02.21.03.21.04.21.04.2.06.2.06.2.07.19.08.19.08.19.09.18.1.17.11.18.11.16.12.17.12.16.13.15.14.15.14.14.15.13.15.13.16.13.16.12.17.11.17.1.18.1.18.09.19.09.19.08.19.07.2.06.2.05.2.05.21.04.21.03.21.02.21.01.22.01.22v106.67h106.88l.22.02.22.02.21.03.21.04.21.04.2.06.2.06.2.07.19.08.19.08.19.09.18.1.17.11.18.11.16.12.17.12.16.13.15.14.15.14.14.15.13.15.13.16.13.16.12.17.11.17.1.18.1.18.09.19.09.19.08.19.07.2.06.2.05.2.05.21.04.21.03.21.02.21.01.22.01.22v85.33l-.01.22-.01.22-.02.22-.03.21-.04.21-.05.21-.05.2-.06.2-.07.2-.08.19-.09.19-.09.18-.1.19-.1.17-.11.18-.12.16-.13.17-.13.15-.13.16-.14.15-.15.14-.15.13-.16.13-.17.13-.16.12-.18.11-.17.1-.18.1-.19.09-.19.09-.19.08-.2.07-.2.06-.2.05-.21.05-.21.04-.21.03-.22.02-.22.01-.21.01H512.16v106.66l-.01.22-.01.22-.02.22-.03.21-.04.21-.05.21-.05.2-.06.2-.07.2-.08.19-.09.19-.09.18-.1.19-.1.17-.11.18-.12.16-.13.17-.13.15-.13.16-.14.15-.15.14-.15.13-.16.13-.17.13-.16.12-.18.11-.17.1-.18.1-.19.09-.19.09-.19.08-.2.07-.2.06-.2.05-.21.05-.21.04-.21.03-.22.02-.22.01-.21.01h-85.34l-.22-.01-.22-.01-.21-.02-.21-.03-.21-.04-.21-.05-.2-.05-.2-.06-.2-.07-.19-.08-.19-.09-.19-.09-.18-.1-.18-.1-.17-.11-.17-.12-.16-.13-.16-.13-.15-.13-.15-.14-.14-.15-.14-.16-.13-.15-.12-.17-.12-.16-.11-.18-.11-.17-.1-.19-.09-.18-.08-.19-.08-.19-.07-.2-.06-.2-.06-.2-.04-.21-.04-.21-.03-.21-.02-.22-.02-.22V509.19H309.49l-.22-.01-.22-.01-.21-.02-.21-.03-.21-.04-.21-.05-.2-.05-.2-.06-.2-.07-.19-.08-.19-.09-.19-.09-.18-.1-.18-.1-.17-.11-.17-.12-.16-.13-.16-.13-.15-.13-.15-.14-.14-.15-.14-.16-.13-.15-.12-.17-.12-.16-.11-.18-.11-.17-.1-.19-.09-.18-.08-.19-.08-.19-.07-.2-.06-.2-.06-.2-.04-.21-.04-.21-.03-.21-.02-.22-.02-.22V418.3l.02-.22.02-.21.03-.21.04-.21.04-.21.06-.2.06-.2.07-.2.08-.19.08-.19.09-.19.1-.18.11-.18.11-.17.12-.17.12-.16.13-.16.14-.15.14-.15.15-.14.15-.14.16-.13.16-.12.17-.12.17-.11.18-.11.18-.1.19-.09.19-.08.19-.08.2-.07.2-.06.2-.06.21-.04.21-.04.21-.03.21-.02.22-.02h106.89V306.3l.02-.22.02-.21.03-.21.04-.21.04-.21.06-.2.06-.2.07-.2.08-.19.08-.19.09-.19.1-.18.11-.18.11-.17.12-.17.12-.16.13-.16.14-.15.14-.15.15-.14.15-.14.16-.13.16-.12.17-.12.17-.11.18-.11.18-.1.19-.09.19-.08.19-.08.2-.07.2-.06.2-.06.21-.04.21-.04.21-.03.21-.02.22-.02h85.77l.22.02z" id="b"/></defs><use xmlns:xlink="http://www.w3.org/1999/xlink" xlink:href="#a" fill="#fff"/><use xmlns:xlink="http://www.w3.org/1999/xlink" xlink:href="#a" fill-opacity="0" stroke="#000" stroke-width="20"/><g><use xmlns:xlink="http://www.w3.org/1999/xlink" xlink:href="#b" fill="#fff"/><use xmlns:xlink="http://www.w3.org/1999/xlink" xlink:href="#b" fill-opacity="0" stroke="#000" stroke-width="20"/></g></svg>
