<svg xmlns="http://www.w3.org/2000/svg" xmlns:xlink="http://www.w3.org/1999/xlink" version="1.1" preserveAspectRatio="xMidYMid meet" viewBox="0 0 640 640" width="32" height="32"><defs><path d="M0 0L320 0L320 320L0 320L0 0Z" id="a24V5115Rq"/><path d="M523.1 320.02L523.32 320.04L523.53 320.07L523.74 320.11L523.95 320.16L524.15 320.21L524.35 320.27L524.55 320.34L524.74 320.42L524.93 320.5L525.12 320.6L525.3 320.69L525.48 320.8L525.65 320.91L525.82 321.03L525.98 321.15L526.14 321.28L526.29 321.42L526.44 321.56L526.58 321.71L526.72 321.86L526.85 322.02L526.97 322.18L527.09 322.35L527.2 322.52L527.31 322.7L527.4 322.88L527.5 323.07L527.58 323.26L527.66 323.45L527.73 323.65L527.79 323.85L527.84 324.05L527.89 324.26L527.93 324.47L527.96 324.68L527.98 324.9L528 325.11L528 325.33L528 432L634.67 432L634.89 432L635.1 432.02L635.32 432.04L635.53 432.07L635.74 432.11L635.95 432.16L636.15 432.21L636.35 432.27L636.55 432.34L636.74 432.42L636.93 432.5L637.12 432.6L637.3 432.69L637.48 432.8L637.65 432.91L637.82 433.03L637.98 433.15L638.14 433.28L638.29 433.42L638.44 433.56L638.58 433.71L638.72 433.86L638.85 434.02L638.97 434.18L639.09 434.35L639.2 434.52L639.31 434.7L639.4 434.88L639.5 435.07L639.58 435.26L639.66 435.45L639.73 435.65L639.79 435.85L639.84 436.05L639.89 436.26L639.93 436.47L639.96 436.68L639.98 436.9L640 437.11L640 437.33L640 522.67L640 522.89L639.98 523.1L639.96 523.32L639.93 523.53L639.89 523.74L639.84 523.95L639.79 524.15L639.73 524.35L639.66 524.55L639.58 524.74L639.5 524.93L639.4 525.12L639.31 525.3L639.2 525.48L639.09 525.65L638.97 525.82L638.85 525.98L638.72 526.14L638.58 526.29L638.44 526.44L638.29 526.58L638.14 526.72L637.98 526.85L637.82 526.97L637.65 527.09L637.48 527.2L637.3 527.31L637.12 527.4L636.93 527.5L636.74 527.58L636.55 527.66L636.35 527.73L636.15 527.79L635.95 527.84L635.74 527.89L635.53 527.93L635.32 527.96L635.1 527.98L634.89 528L634.67 528L528 528L528 634.67L528 634.89L527.98 635.1L527.96 635.32L527.93 635.53L527.89 635.74L527.84 635.95L527.79 636.15L527.73 636.35L527.66 636.55L527.58 636.74L527.5 636.93L527.4 637.12L527.31 637.3L527.2 637.48L527.09 637.65L526.97 637.82L526.85 637.98L526.72 638.14L526.58 638.29L526.44 638.44L526.29 638.58L526.14 638.72L525.98 638.85L525.82 638.97L525.65 639.09L525.48 639.2L525.3 639.31L525.12 639.4L524.93 639.5L524.74 639.58L524.55 639.66L524.35 639.73L524.15 639.79L523.95 639.84L523.74 639.89L523.53 639.93L523.32 639.96L523.1 639.98L522.89 640L522.67 640L437.33 640L437.11 640L436.9 639.98L436.68 639.96L436.47 639.93L436.26 639.89L436.05 639.84L435.85 639.79L435.65 639.73L435.45 639.66L435.26 639.58L435.07 639.5L434.88 639.4L434.7 639.31L434.52 639.2L434.35 639.09L434.18 638.97L434.02 638.85L433.86 638.72L433.71 638.58L433.56 638.44L433.42 638.29L433.28 638.14L433.15 637.98L433.03 637.82L432.91 637.65L432.8 637.48L432.69 637.3L432.6 637.12L432.5 636.93L432.42 636.74L432.34 636.55L432.27 636.35L432.21 636.15L432.16 635.95L432.11 635.74L432.07 635.53L432.04 635.32L432.02 635.1L432 634.89L432 634.67L432 528L325.33 528L325.11 528L324.9 527.98L324.68 527.96L324.47 527.93L324.26 527.89L324.05 527.84L323.85 527.79L323.65 527.73L323.45 527.66L323.26 527.58L323.07 527.5L322.88 527.4L322.7 527.31L322.52 527.2L322.35 527.09L322.18 526.97L322.02 526.85L321.86 526.72L321.71 526.58L321.56 526.44L321.42 526.29L321.28 526.14L321.15 525.98L321.03 525.82L320.91 525.65L320.8 525.48L320.69 525.3L320.6 525.12L320.5 524.93L320.42 524.74L320.34 524.55L320.27 524.35L320.21 524.15L320.16 523.95L320.11 523.74L320.07 523.53L320.04 523.32L320.02 523.1L320 522.89L320 522.67L320 437.33L320 437.11L320.02 436.9L320.04 436.68L320.07 436.47L320.11 436.26L320.16 436.05L320.21 435.85L320.27 435.65L320.34 435.45L320.42 435.26L320.5 435.07L320.6 434.88L320.69 434.7L320.8 434.52L320.91 434.35L321.03 434.18L321.15 434.02L321.28 433.86L321.42 433.71L321.56 433.56L321.71 433.42L321.86 433.28L322.02 433.15L322.18 433.03L322.35 432.91L322.52 432.8L322.7 432.69L322.88 432.6L323.07 432.5L323.26 432.42L323.45 432.34L323.65 432.27L323.85 432.21L324.05 432.16L324.26 432.11L324.47 432.07L324.68 432.04L324.9 432.02L325.11 432L325.33 432L432 432L432 325.33L432 325.11L432.02 324.9L432.04 324.68L432.07 324.47L432.11 324.26L432.16 324.05L432.21 323.85L432.27 323.65L432.34 323.45L432.42 323.26L432.5 323.07L432.6 322.88L432.69 322.7L432.8 322.52L432.91 322.35L433.03 322.18L433.15 322.02L433.28 321.86L433.42 321.71L433.56 321.56L433.71 321.42L433.86 321.28L434.02 321.15L434.18 321.03L434.35 320.91L434.52 320.8L434.7 320.69L434.88 320.6L435.07 320.5L435.26 320.42L435.45 320.34L435.65 320.27L435.85 320.21L436.05 320.16L436.26 320.11L436.47 320.07L436.68 320.04L436.9 320.02L437.11 320L437.33 320L522.67 320L522.89 320L523.1 320.02Z" id="baY8N70hi"/></defs><g><g><use xlink:href="#a24V5115Rq" opacity="1" fill="#ffffff" fill-opacity="1"/><g><use xlink:href="#a24V5115Rq" opacity="1" fill-opacity="0" stroke="#000000" stroke-width="5" stroke-opacity="1"/></g></g><g><use xlink:href="#baY8N70hi" opacity="1" fill="#ffffff" fill-opacity="1"/><g><use xlink:href="#baY8N70hi" opacity="1" fill-opacity="0" stroke="#000000" stroke-width="5" stroke-opacity="1"/></g></g></g></svg>
