<?xml version="1.0" encoding="UTF-8" standalone="no"?>
<!-- Created with Inkscape (http://www.inkscape.org/) -->

<svg
   xmlns:dc="http://purl.org/dc/elements/1.1/"
   xmlns:cc="http://creativecommons.org/ns#"
   xmlns:rdf="http://www.w3.org/1999/02/22-rdf-syntax-ns#"
   xmlns:svg="http://www.w3.org/2000/svg"
   xmlns="http://www.w3.org/2000/svg"
   xmlns:sodipodi="http://sodipodi.sourceforge.net/DTD/sodipodi-0.dtd"
   xmlns:inkscape="http://www.inkscape.org/namespaces/inkscape"
   width="32"
   height="32"
   viewBox="0 0 8.4666665 8.4666669"
   version="1.1"
   id="svg8"
   inkscape:version="0.92.4 5da689c313, 2019-01-14"
   sodipodi:docname="add_block (copy).svg">
  <defs
     id="defs2" />
  <sodipodi:namedview
     id="base"
     pagecolor="#ffffff"
     bordercolor="#666666"
     borderopacity="1.0"
     inkscape:pageopacity="0.0"
     inkscape:pageshadow="2"
     inkscape:zoom="44.8"
     inkscape:cx="23.553572"
     inkscape:cy="16.791021"
     inkscape:document-units="mm"
     inkscape:current-layer="layer1"
     showgrid="true"
     units="px"
     inkscape:window-width="3840"
     inkscape:window-height="2063"
     inkscape:window-x="1920"
     inkscape:window-y="50"
     inkscape:window-maximized="1">
    <inkscape:grid
       type="xygrid"
       id="grid4518" />
  </sodipodi:namedview>
  <metadata
     id="metadata5">
    <rdf:RDF>
      <cc:Work
         rdf:about="">
        <dc:format>image/svg+xml</dc:format>
        <dc:type
           rdf:resource="http://purl.org/dc/dcmitype/StillImage" />
        <dc:title />
      </cc:Work>
    </rdf:RDF>
  </metadata>
  <g
     inkscape:label="Layer 1"
     inkscape:groupmode="layer"
     id="layer1"
     transform="translate(0,-288.53332)">
    <g
       id="g825"
       transform="matrix(0.53124998,0,0,0.53124998,3.96875,139.21875)">
      <rect
         style="fill:#000007;fill-opacity:1;stroke:none;stroke-width:0.26458332;stroke-miterlimit:4;stroke-dasharray:none;stroke-opacity:1"
         id="rect819"
         width="2.6458333"
         height="8.4666662"
         x="2.9104166"
         y="288.53333"
         rx="4.4504768e-07"
         ry="0.92189294" />
      <rect
         style="fill:#000007;fill-opacity:1;stroke:none;stroke-width:0.26458332;stroke-miterlimit:4;stroke-dasharray:none;stroke-opacity:1"
         id="rect821"
         width="8.4666662"
         height="2.6458333"
         x="0"
         y="291.44373"
         rx="4.4504768e-07"
         ry="0.92189294" />
    </g>
    <path
       style="fill:#000007;fill-opacity:1;stroke:none;stroke-width:0.26458332;stroke-miterlimit:4;stroke-dasharray:none;stroke-opacity:1"
       id="path817"
       sodipodi:type="arc"
       sodipodi:cx="0.26458335"
       sodipodi:cy="288.79797"
       sodipodi:rx="0.26458332"
       sodipodi:ry="0.26458332"
       sodipodi:start="0"
       sodipodi:end="6.2828851"
       d="M 0.52916667,288.79797 A 0.26458332,0.26458332 0 0 1 0.26460321,289.06256 0.26458332,0.26458332 0 0 1 3.2782997e-8,288.79801 0.26458332,0.26458332 0 0 1 0.26452378,288.53339 a 0.26458332,0.26458332 0 0 1 0.26464288,0.2645"
       sodipodi:open="true" />
    <path
       style="fill:#000007;fill-opacity:1;stroke:none;stroke-width:0.26458332;stroke-miterlimit:4;stroke-dasharray:none;stroke-opacity:1"
       id="path817-3"
       sodipodi:type="arc"
       sodipodi:cx="4.4979167"
       sodipodi:cy="292.50214"
       sodipodi:rx="0.26458332"
       sodipodi:ry="0.26458332"
       sodipodi:start="0"
       sodipodi:end="6.2828851"
       d="m 4.7625,292.50214 a 0.26458332,0.26458332 0 0 1 -0.2645634,0.26458 0.26458332,0.26458332 0 0 1 -0.2646032,-0.26454 0.26458332,0.26458332 0 0 1 0.2645237,-0.26463 0.26458332,0.26458332 0 0 1 0.2646429,0.26451"
       sodipodi:open="true" />
    <path
       style="fill:#000007;fill-opacity:1;stroke:none;stroke-width:0.26458332;stroke-miterlimit:4;stroke-dasharray:none;stroke-opacity:1"
       id="path817-6"
       sodipodi:type="arc"
       sodipodi:cx="0.26458335"
       sodipodi:cy="292.50214"
       sodipodi:rx="0.26458332"
       sodipodi:ry="0.26458332"
       sodipodi:start="0"
       sodipodi:end="6.2828851"
       d="M 0.52916667,292.50214 A 0.26458332,0.26458332 0 0 1 0.26460321,292.76672 0.26458332,0.26458332 0 0 1 3.2782997e-8,292.50218 0.26458332,0.26458332 0 0 1 0.26452378,292.23755 a 0.26458332,0.26458332 0 0 1 0.26464288,0.26451"
       sodipodi:open="true" />
    <path
       style="fill:#000007;fill-opacity:1;stroke:none;stroke-width:0.26458332;stroke-miterlimit:4;stroke-dasharray:none;stroke-opacity:1"
       id="path817-7"
       sodipodi:type="arc"
       sodipodi:cx="4.4979167"
       sodipodi:cy="288.79797"
       sodipodi:rx="0.26458332"
       sodipodi:ry="0.26458332"
       sodipodi:start="0"
       sodipodi:end="6.2828851"
       d="m 4.7625,288.79797 a 0.26458332,0.26458332 0 0 1 -0.2645634,0.26459 0.26458332,0.26458332 0 0 1 -0.2646032,-0.26455 0.26458332,0.26458332 0 0 1 0.2645237,-0.26462 0.26458332,0.26458332 0 0 1 0.2646429,0.2645"
       sodipodi:open="true" />
  </g>
</svg>
